<svg xmlns="http://www.w3.org/2000/svg" width="14.466" height="26.522" viewBox="0 0 14.466 26.522">
  <path id="_63ece9fcab689064e8f26396_facebook-2_1_" data-name="63ece9fcab689064e8f26396_facebook-2 (1)" d="M15.041,1A5.425,5.425,0,0,0,9.617,6.425v4.219H6.6a.6.6,0,0,0-.6.6v4.822a.6.6,0,0,0,.6.6H9.617V26.919a.6.6,0,0,0,.6.6h4.822a.6.6,0,0,0,.6-.6V16.672h3.014a.6.6,0,0,0,.585-.457l1.206-4.822a.6.6,0,0,0-.585-.749H15.644V8.836a1.808,1.808,0,0,1,1.808-1.808h2.411a.6.6,0,0,0,.6-.6V1.6a.6.6,0,0,0-.6-.6Z" transform="translate(-6 -1)" fill="#821832"/>
</svg>
