<svg xmlns="http://www.w3.org/2000/svg" width="18.91" height="34.669" viewBox="0 0 18.91 34.669">
  <path id="_63ece9fcab689064e8f26396_facebook-2_1_" data-name="63ece9fcab689064e8f26396_facebook-2 (1)" d="M17.819,1a7.091,7.091,0,0,0-7.091,7.091v5.516H6.788A.788.788,0,0,0,6,14.395v6.3a.788.788,0,0,0,.788.788h3.94V34.881a.788.788,0,0,0,.788.788h6.3a.788.788,0,0,0,.788-.788V21.486h3.94a.788.788,0,0,0,.764-.6l1.576-6.3a.788.788,0,0,0-.764-.979H18.607V11.243a2.364,2.364,0,0,1,2.364-2.364h3.152a.788.788,0,0,0,.788-.788v-6.3A.788.788,0,0,0,24.122,1Z" transform="translate(-6 -1)" fill="#fff"/>
</svg>
