<svg xmlns="http://www.w3.org/2000/svg" width="78.542" height="100.005" viewBox="0 0 78.542 100.005">
  <g id="Logo_VUBA_STONE_STACKED" data-name="Logo VUBA STONE STACKED" transform="translate(-110.323 44.962)">
    <path id="Path_1" data-name="Path 1" d="M241.975,15.009l-2.8,21.147h75.737l2.8-21.147Z" transform="translate(-128.848 18.888)" fill="#821732"/>
    <path id="Path_2" data-name="Path 2" d="M250.646,33.081a3.183,3.183,0,0,1-1.42-2.813c0-.1.012-.279.038-.534h3.947a1.284,1.284,0,0,0,.266,1.01,1.264,1.264,0,0,0,.991.362,1.455,1.455,0,0,0,.887-.247.825.825,0,0,0,.334-.705,1.037,1.037,0,0,0-.485-.878,8.935,8.935,0,0,0-1.574-.8,16.027,16.027,0,0,1-1.792-.867,3.936,3.936,0,0,1-1.221-1.125A2.976,2.976,0,0,1,250.1,24.7a4.125,4.125,0,0,1,.687-2.393,4.3,4.3,0,0,1,1.916-1.526,7.124,7.124,0,0,1,2.813-.524,6.712,6.712,0,0,1,2.536.448,3.908,3.908,0,0,1,1.726,1.287,3.252,3.252,0,0,1,.62,1.983,4.012,4.012,0,0,1-.02.458h-4.023a1.375,1.375,0,0,0,.02-.266.912.912,0,0,0-.287-.716,1.126,1.126,0,0,0-.781-.257,1.271,1.271,0,0,0-.829.257.872.872,0,0,0-.315.716,1.027,1.027,0,0,0,.486.848,9.439,9.439,0,0,0,1.516.829,17.25,17.25,0,0,1,1.821.963A4.223,4.223,0,0,1,259.217,28a3.144,3.144,0,0,1,.515,1.831,3.791,3.791,0,0,1-.648,2.164,4.3,4.3,0,0,1-1.849,1.507,6.845,6.845,0,0,1-2.841.543,6.566,6.566,0,0,1-3.747-.963" transform="translate(-131.853 17.318)" fill="#fff"/>
    <path id="Path_3" data-name="Path 3" d="M278.823,20.557l-.533,2.975h-3.566L272.874,34h-3.756l1.849-10.468H267.42l.534-2.975Z" transform="translate(-137.292 17.229)" fill="#fff"/>
    <path id="Path_4" data-name="Path 4" d="M286.12,33.338a4.923,4.923,0,0,1-2-1.983,5.981,5.981,0,0,1-.705-2.937,8.8,8.8,0,0,1,1-4.242,7.174,7.174,0,0,1,2.8-2.888,8.167,8.167,0,0,1,4.129-1.03,6.375,6.375,0,0,1,3.041.7,4.869,4.869,0,0,1,2.011,1.964,5.918,5.918,0,0,1,.706,2.926,8.752,8.752,0,0,1-1.011,4.233,7.332,7.332,0,0,1-2.821,2.917,8.143,8.143,0,0,1-4.157,1.049,6.16,6.16,0,0,1-2.993-.705m5.539-3.356a3.786,3.786,0,0,0,1.3-1.573,5.062,5.062,0,0,0,.449-2.126,2.609,2.609,0,0,0-.658-1.9,2.5,2.5,0,0,0-1.878-.677,3.448,3.448,0,0,0-1.983.581,3.783,3.783,0,0,0-1.315,1.554,4.947,4.947,0,0,0-.458,2.136,2.623,2.623,0,0,0,.667,1.9,2.518,2.518,0,0,0,1.907.7,3.366,3.366,0,0,0,1.973-.591" transform="translate(-142.072 17.318)" fill="#fff"/>
    <path id="Path_5" data-name="Path 5" d="M316.145,34h-3.756l-3.622-7.513L307.43,34h-3.756l2.383-13.442H309.8l3.642,7.608,1.334-7.608h3.737Z" transform="translate(-148.129 17.229)" fill="#fff"/>
    <path id="Path_6" data-name="Path 6" d="M330.086,23.512l-.381,2.232h4.289l-.514,2.84H329.19l-.438,2.441h4.862L333.1,34H324.48l2.384-13.442h8.6l-.515,2.955Z" transform="translate(-154.348 17.229)" fill="#fff"/>
    <path id="Path_7" data-name="Path 7" d="M106,12.831l2.249,14.717,7.415-14.717h5.053L110.361,32.324h-5.942l-3.471-19.493Z" transform="translate(13.418 -4.477)" fill="#00456c"/>
    <path id="Path_8" data-name="Path 8" d="M142.019,12.831l-2.055,11.635a7.707,7.707,0,0,0-.111,1,2.554,2.554,0,0,0,.722,1.957,3,3,0,0,0,2.138.68,3.924,3.924,0,0,0,2.721-.943,4.528,4.528,0,0,0,1.361-2.693l2.054-11.635H153.6l-2.055,11.635a10.077,10.077,0,0,1-1.875,4.456,8.7,8.7,0,0,1-3.415,2.708,10.715,10.715,0,0,1-4.373.888,7.383,7.383,0,0,1-4.93-1.583,5.66,5.66,0,0,1-1.873-4.582,11.549,11.549,0,0,1,.166-1.888l2.027-11.635Z" transform="translate(-1.246 -4.477)" fill="#00456c"/>
    <path id="Path_9" data-name="Path 9" d="M183.6,20.745a5.931,5.931,0,0,1-2.665,1.583,3.643,3.643,0,0,1,2.194,1.36,3.959,3.959,0,0,1,.8,2.471,4.319,4.319,0,0,1-.084.861,5.806,5.806,0,0,1-2.387,3.873,8.345,8.345,0,0,1-5.025,1.43h-9.081L170.8,12.831h8.775a6.69,6.69,0,0,1,4.081,1.083,3.539,3.539,0,0,1,1.444,3,5.906,5.906,0,0,1-.082.971,5.321,5.321,0,0,1-1.417,2.861m-4.414,5.137a1.517,1.517,0,0,0-.583-1.263,2.548,2.548,0,0,0-1.611-.457h-3.443l-.777,4.387h3.5a3.11,3.11,0,0,0,1.944-.556,2.513,2.513,0,0,0,.916-1.61,3.424,3.424,0,0,0,.056-.5m-.029-5.664a2.266,2.266,0,0,0,.889-1.527,2.856,2.856,0,0,0,.027-.444,1.5,1.5,0,0,0-.528-1.236,2.419,2.419,0,0,0-1.554-.431h-3.111l-.722,4.166h3.082a3.178,3.178,0,0,0,1.916-.528" transform="translate(-15.114 -4.477)" fill="#00456c"/>
    <path id="Path_10" data-name="Path 10" d="M211.222,28.881h-7.275l-1.777,3.443H197.2l10.5-19.493h5.5L216.8,32.324h-5.026Zm-.556-3.61-1.138-7.22-3.722,7.22Z" transform="translate(-27.937 -4.477)" fill="#00456c"/>
    <path id="Path_11" data-name="Path 11" d="M25.309,40.56l-10.046-26.9a87.3,87.3,0,0,0-9.178,3.9c-3.229,1.7-4.339,6-4.339,6L0,35.034,2.648,25.92l3.609,9.33L3.707,37.065l7.04,10.146s-.059-6.079-.069-6.738a2.34,2.34,0,0,1,1.317-2.543,3.107,3.107,0,0,1,2.653.511l13.522,9.78Z" transform="translate(119.634 -47.608)" fill="#00456c"/>
    <path id="Path_12" data-name="Path 12" d="M63.632,53.168s-4.187-10.678-5.556-14.4l-3.51,9.4Z" transform="translate(109.072 -52.467)" fill="#00456c"/>
    <path id="Path_13" data-name="Path 13" d="M76.89,23.586A46.136,46.136,0,0,0,76.2,15.8c-.729-5.215-2.865-6.3-4.964-7.748-.456-.315-1.285-.812-2.362-1.4L60.41,29.328c6.218,5.573,10.712,7.084,10.712,7.084,3.042,1.585,2.457-4.451,2.457-4.451.243-1.728,1.973-.856,2.393-1.559a8.389,8.389,0,0,0,.869-3.519c.077-.814.069-2.05.049-3.3" transform="translate(107.941 -46.252)" fill="#00456c"/>
    <path id="Path_14" data-name="Path 14" d="M37.384,37.728l2.931,7.849,2.991-8.009,8.3-22.22a7.6,7.6,0,0,1-3.91-3.409c-1.673-3.255.825-6.526.825-6.526a4.229,4.229,0,0,0,.422,2.81c.946,1.619,2.939,1.836,4.64,1.831L56.4,2.51C53.146,1.142,49.615,0,47.024,0c-5.1,0-15.917,7.322-15.917,7.322s-1.861.589-4.52,1.5Z" transform="translate(114.488 -44.962)" fill="#821732"/>
  </g>
</svg>
