<svg xmlns="http://www.w3.org/2000/svg" xmlns:xlink="http://www.w3.org/1999/xlink" width="162" height="26.12" viewBox="0 0 162 26.12">
  <defs>
    <clipPath id="clip-path">
      <rect id="Rectangle_2" data-name="Rectangle 2" width="162" height="26.12" fill="none"/>
    </clipPath>
  </defs>
  <g id="Logo_VUBA_STONE" data-name="Logo VUBA STONE" transform="translate(0 0)">
    <path id="Path_1" data-name="Path 1" d="M241.016,15.009l-1.845,13.913H289l1.845-13.913Z" transform="translate(-128.848 -8.086)" fill="#00456c"/>
    <g id="Group_2" data-name="Group 2" transform="translate(0 0)">
      <g id="Group_1" data-name="Group 1" clip-path="url(#clip-path)">
        <path id="Path_2" data-name="Path 2" d="M250.161,28.695a2.094,2.094,0,0,1-.935-1.851c0-.067.008-.184.025-.351h2.6a.845.845,0,0,0,.175.665.831.831,0,0,0,.652.238.958.958,0,0,0,.584-.163.543.543,0,0,0,.22-.464.683.683,0,0,0-.319-.578,5.879,5.879,0,0,0-1.036-.527,10.543,10.543,0,0,1-1.179-.571,2.59,2.59,0,0,1-.8-.74,1.958,1.958,0,0,1-.339-1.173,2.714,2.714,0,0,1,.452-1.574,2.828,2.828,0,0,1,1.261-1,4.687,4.687,0,0,1,1.851-.345,4.416,4.416,0,0,1,1.668.295,2.572,2.572,0,0,1,1.136.847,2.14,2.14,0,0,1,.408,1.3,2.635,2.635,0,0,1-.013.3h-2.647a.906.906,0,0,0,.013-.175.6.6,0,0,0-.189-.471.741.741,0,0,0-.514-.169.836.836,0,0,0-.546.169.574.574,0,0,0-.207.471.676.676,0,0,0,.32.558,6.21,6.21,0,0,0,1,.546,11.351,11.351,0,0,1,1.2.634,2.779,2.779,0,0,1,.809.784,2.068,2.068,0,0,1,.339,1.2,2.494,2.494,0,0,1-.426,1.424,2.827,2.827,0,0,1-1.217.991,4.5,4.5,0,0,1-1.87.357,4.32,4.32,0,0,1-2.465-.633" transform="translate(-134.264 -10.913)" fill="#fff"/>
        <path id="Path_3" data-name="Path 3" d="M274.923,20.557l-.351,1.957h-2.347L271.008,29.4h-2.471l1.216-6.887H267.42l.352-1.957Z" transform="translate(-144.066 -11.074)" fill="#fff"/>
        <path id="Path_4" data-name="Path 4" d="M285.194,28.864a3.239,3.239,0,0,1-1.318-1.3,3.935,3.935,0,0,1-.464-1.932,5.793,5.793,0,0,1,.659-2.791,4.72,4.72,0,0,1,1.844-1.9,5.373,5.373,0,0,1,2.716-.678,4.2,4.2,0,0,1,2,.458,3.2,3.2,0,0,1,1.323,1.292,3.894,3.894,0,0,1,.465,1.925,5.758,5.758,0,0,1-.665,2.785,4.824,4.824,0,0,1-1.856,1.919,5.358,5.358,0,0,1-2.735.69,4.053,4.053,0,0,1-1.969-.464m3.644-2.208a2.491,2.491,0,0,0,.853-1.035,3.331,3.331,0,0,0,.3-1.4,1.716,1.716,0,0,0-.433-1.249,1.645,1.645,0,0,0-1.236-.445,2.269,2.269,0,0,0-1.3.382,2.489,2.489,0,0,0-.865,1.022,3.255,3.255,0,0,0-.3,1.406,1.726,1.726,0,0,0,.439,1.248,1.657,1.657,0,0,0,1.255.458,2.214,2.214,0,0,0,1.3-.389" transform="translate(-152.681 -10.913)" fill="#fff"/>
        <path id="Path_5" data-name="Path 5" d="M311.879,29.4h-2.471l-2.383-4.943-.879,4.943h-2.471l1.568-8.844H307.7l2.4,5.006.878-5.006h2.459Z" transform="translate(-163.597 -11.074)" fill="#fff"/>
        <path id="Path_6" data-name="Path 6" d="M328.169,22.5l-.25,1.468h2.822l-.338,1.869h-2.823l-.288,1.606h3.2l-.339,1.957h-5.67l1.568-8.844h5.658l-.339,1.944Z" transform="translate(-174.806 -11.074)" fill="#fff"/>
        <path id="Path_7" data-name="Path 7" d="M105.035,12.831l1.819,11.9,6-11.9h4.086L108.56,28.6h-4.806l-2.807-15.765Z" transform="translate(-54.383 -6.912)" fill="#00456c"/>
        <path id="Path_8" data-name="Path 8" d="M140.691,12.831l-1.662,9.41a6.234,6.234,0,0,0-.09.809,2.066,2.066,0,0,0,.584,1.583,2.43,2.43,0,0,0,1.729.55,3.174,3.174,0,0,0,2.2-.763,3.662,3.662,0,0,0,1.1-2.178l1.661-9.41h3.841l-1.662,9.41a8.15,8.15,0,0,1-1.516,3.6,7.04,7.04,0,0,1-2.762,2.19,8.666,8.666,0,0,1-3.537.718,5.971,5.971,0,0,1-3.987-1.28,4.577,4.577,0,0,1-1.515-3.705,9.341,9.341,0,0,1,.134-1.527l1.639-9.41Z" transform="translate(-72.769 -6.912)" fill="#00456c"/>
        <path id="Path_9" data-name="Path 9" d="M180.491,19.231a4.8,4.8,0,0,1-2.156,1.28,2.947,2.947,0,0,1,1.775,1.1,3.2,3.2,0,0,1,.651,2,3.5,3.5,0,0,1-.068.7,4.7,4.7,0,0,1-1.931,3.133A6.749,6.749,0,0,1,174.7,28.6h-7.344l2.785-15.765h7.1a5.41,5.41,0,0,1,3.3.875,2.862,2.862,0,0,1,1.168,2.425,4.775,4.775,0,0,1-.066.786,4.3,4.3,0,0,1-1.146,2.314m-3.57,4.154a1.227,1.227,0,0,0-.472-1.022,2.06,2.06,0,0,0-1.3-.37h-2.784l-.629,3.548h2.829a2.515,2.515,0,0,0,1.572-.45,2.032,2.032,0,0,0,.741-1.3,2.768,2.768,0,0,0,.045-.4M176.9,18.8a1.833,1.833,0,0,0,.719-1.235,2.309,2.309,0,0,0,.022-.359,1.217,1.217,0,0,0-.427-1,1.956,1.956,0,0,0-1.257-.348h-2.516l-.584,3.369h2.493a2.57,2.57,0,0,0,1.55-.427" transform="translate(-90.157 -6.912)" fill="#00456c"/>
        <path id="Path_10" data-name="Path 10" d="M208.54,25.811h-5.884L201.219,28.6H197.2l8.489-15.765h4.447L213.053,28.6h-4.065Zm-.45-2.919-.92-5.839-3.01,5.839Z" transform="translate(-106.236 -6.912)" fill="#00456c"/>
        <path id="Path_11" data-name="Path 11" d="M14.476,29.047,8.73,13.662a49.932,49.932,0,0,0-5.25,2.232A5.957,5.957,0,0,0,1,19.324L0,25.887l1.514-5.213L3.579,26.01,2.12,27.049l4.027,5.8S6.114,29.375,6.108,29a1.338,1.338,0,0,1,.753-1.455,1.777,1.777,0,0,1,1.518.292l7.734,5.594Z" transform="translate(0 -7.36)" fill="#00456c"/>
        <path id="Path_12" data-name="Path 12" d="M59.751,47s-2.395-6.108-3.178-8.239l-2.008,5.378Z" transform="translate(-29.396 -20.883)" fill="#00456c"/>
        <path id="Path_13" data-name="Path 13" d="M69.836,16.339a26.389,26.389,0,0,0-.392-4.452A5.236,5.236,0,0,0,66.6,7.455c-.261-.18-.735-.465-1.351-.8L60.41,19.624a20.015,20.015,0,0,0,6.127,4.052c1.74.907,1.405-2.546,1.405-2.546.139-.989,1.129-.489,1.369-.892a4.8,4.8,0,0,0,.5-2.013c.044-.466.04-1.173.028-1.886" transform="translate(-32.544 -3.585)" fill="#00456c"/>
        <path id="Path_14" data-name="Path 14" d="M32.763,21.58l1.677,4.49,1.711-4.581L40.9,8.779a4.349,4.349,0,0,1-2.236-1.95A3.794,3.794,0,0,1,39.132,3.1,2.419,2.419,0,0,0,39.374,4.7a2.846,2.846,0,0,0,2.654,1.048l1.611-4.315A15.64,15.64,0,0,0,38.277,0c-2.915,0-9.1,4.188-9.1,4.188s-1.065.337-2.585.856Z" transform="translate(-14.323 0)" fill="#821732"/>
      </g>
    </g>
  </g>
</svg>
