<svg xmlns="http://www.w3.org/2000/svg" width="34.451" height="34.451" viewBox="0 0 34.451 34.451">
  <path id="iconmonstr-instagram-11" d="M17.225,3.1c4.6,0,5.145.017,6.962.1,4.668.212,6.849,2.427,7.061,7.061.083,1.816.1,2.361.1,6.961s-.017,5.145-.1,6.961c-.214,4.629-2.389,6.849-7.061,7.061-1.817.083-2.36.1-6.962.1s-5.145-.017-6.961-.1c-4.68-.214-6.849-2.439-7.061-7.062-.083-1.816-.1-2.36-.1-6.961s.019-5.143.1-6.961C3.418,5.633,5.593,3.416,10.265,3.2c1.817-.082,2.361-.1,6.961-.1Zm0-3.1c-4.678,0-5.264.02-7.1.1C3.869.39.392,3.861.1,10.123c-.085,1.839-.1,2.424-.1,7.1s.02,5.265.1,7.1C.39,30.584,3.861,34.06,10.123,34.348c1.839.083,2.424.1,7.1.1s5.265-.02,7.1-.1c6.25-.287,9.735-3.758,10.018-10.019.085-1.837.1-2.424.1-7.1s-.02-5.264-.1-7.1C34.066,3.874,30.591.392,24.33.1,22.491.02,21.9,0,17.225,0Zm0,8.38a8.846,8.846,0,1,0,8.845,8.845A8.846,8.846,0,0,0,17.225,8.38Zm0,14.587a5.742,5.742,0,1,1,5.742-5.742A5.741,5.741,0,0,1,17.225,22.967Zm9.2-17a2.067,2.067,0,1,0,2.066,2.067A2.068,2.068,0,0,0,26.421,5.964Z" fill="#fff"/>
</svg>
