<svg xmlns="http://www.w3.org/2000/svg" width="26.355" height="26.355" viewBox="0 0 26.355 26.355">
  <path id="iconmonstr-instagram-11" d="M13.177,2.375c3.518,0,3.936.013,5.326.077,3.571.163,5.239,1.857,5.4,5.4.064,1.389.076,1.806.076,5.325s-.013,3.936-.076,5.325c-.164,3.541-1.827,5.239-5.4,5.4-1.39.064-1.805.077-5.326.077s-3.936-.013-5.325-.077c-3.58-.164-5.239-1.866-5.4-5.4-.064-1.389-.077-1.805-.077-5.325s.014-3.935.077-5.325c.164-3.544,1.827-5.239,5.4-5.4,1.39-.063,1.806-.076,5.325-.076Zm0-2.375C9.6,0,9.151.015,7.745.079,2.959.3.3,2.954.08,7.744.015,9.151,0,9.6,0,13.177s.015,4.028.079,5.433C.3,23.4,2.954,26.056,7.744,26.276c1.407.064,1.855.079,5.433.079s4.028-.015,5.433-.079c4.781-.22,7.447-2.875,7.664-7.665.065-1.406.08-1.855.08-5.433s-.015-4.027-.079-5.432C26.061,2.964,23.4.3,18.612.08,17.205.015,16.756,0,13.177,0Zm0,6.411a6.767,6.767,0,1,0,6.767,6.767A6.767,6.767,0,0,0,13.177,6.411Zm0,11.159a4.392,4.392,0,1,1,4.392-4.392A4.392,4.392,0,0,1,13.177,17.57ZM20.212,4.563a1.581,1.581,0,1,0,1.58,1.581A1.582,1.582,0,0,0,20.212,4.563Z" fill="#821832"/>
</svg>
