<svg xmlns="http://www.w3.org/2000/svg" xmlns:xlink="http://www.w3.org/1999/xlink" width="131.937" height="140.875" viewBox="0 0 131.937 140.875">
  <defs>
    <clipPath id="clip-path">
      <rect id="Rectangle_202" data-name="Rectangle 202" width="131.937" height="140.875" fill="none"/>
    </clipPath>
  </defs>
  <g id="Group_395" data-name="Group 395" transform="translate(0)">
    <g id="Group_394" data-name="Group 394" transform="translate(0)" clip-path="url(#clip-path)">
      <path id="Path_3848" data-name="Path 3848" d="M122.7,107.835H93.024a1.7,1.7,0,0,1,0-3.388H122.7a11.8,11.8,0,0,0,11.585-11.983V15.371A11.8,11.8,0,0,0,122.7,3.388H26.955A11.8,11.8,0,0,0,15.37,15.371v56.6a1.639,1.639,0,1,1-3.276,0v-56.6A15.139,15.139,0,0,1,26.955,0H122.7a15.139,15.139,0,0,1,14.86,15.371V92.464a15.139,15.139,0,0,1-14.86,15.371" transform="translate(-5.621)" fill="#262626"/>
      <path id="Path_3849" data-name="Path 3849" d="M117.515,100.113a14.051,14.051,0,1,1,13.576-14.042,13.831,13.831,0,0,1-13.576,14.042m0-24.7a10.661,10.661,0,1,0,10.3,10.655,10.494,10.494,0,0,0-10.3-10.655" transform="translate(-48.308 -32.153)" fill="#262626"/>
      <path id="Path_3850" data-name="Path 3850" d="M127.891,148.862a1.667,1.667,0,0,1-1.638-1.694V138.54a1.639,1.639,0,1,1,3.276,0v8.628a1.667,1.667,0,0,1-1.638,1.694" transform="translate(-58.68 -61.087)" fill="#262626"/>
      <path id="Path_3851" data-name="Path 3851" d="M127.891,48.25a1.667,1.667,0,0,1-1.638-1.694V37.928a1.639,1.639,0,1,1,3.276,0v8.628a1.667,1.667,0,0,1-1.638,1.694" transform="translate(-58.68 -16.175)" fill="#262626"/>
      <path id="Path_3852" data-name="Path 3852" d="M163.844,133.888a1.607,1.607,0,0,1-1.159-.5l-5.895-6.109a1.734,1.734,0,0,1,0-2.4,1.6,1.6,0,0,1,2.316,0L165,131a1.734,1.734,0,0,1,0,2.4,1.6,1.6,0,0,1-1.157.5" transform="translate(-72.65 -55.527)" fill="#262626"/>
      <path id="Path_3853" data-name="Path 3853" d="M92.7,62.737a1.605,1.605,0,0,1-1.158-.5l-5.906-6.11a1.734,1.734,0,0,1,0-2.4,1.6,1.6,0,0,1,2.316,0l5.906,6.109a1.736,1.736,0,0,1,0,2.4,1.607,1.607,0,0,1-1.158.5" transform="translate(-39.581 -23.765)" fill="#262626"/>
      <path id="Path_3854" data-name="Path 3854" d="M178.736,97.721h-8.352a1.7,1.7,0,0,1,0-3.388h8.352a1.7,1.7,0,0,1,0,3.388" transform="translate(-78.43 -42.109)" fill="#262626"/>
      <path id="Path_3855" data-name="Path 3855" d="M78.125,97.721H69.773a1.7,1.7,0,0,1,0-3.388h8.352a1.7,1.7,0,0,1,0,3.388" transform="translate(-31.668 -42.109)" fill="#262626"/>
      <path id="Path_3856" data-name="Path 3856" d="M157.949,62.736a1.6,1.6,0,0,1-1.157-.5,1.736,1.736,0,0,1,0-2.4l5.9-6.109a1.6,1.6,0,0,1,2.316,0,1.735,1.735,0,0,1,0,2.4l-5.9,6.109a1.6,1.6,0,0,1-1.159.5" transform="translate(-72.651 -23.765)" fill="#262626"/>
      <path id="Path_3857" data-name="Path 3857" d="M94.251,129.762a1.6,1.6,0,0,1-1.158-.5,1.734,1.734,0,0,1,0-2.4l1.917-1.982a1.6,1.6,0,0,1,2.316,0,1.734,1.734,0,0,1,0,2.395l-1.917,1.983a1.606,1.606,0,0,1-1.158.5" transform="translate(-43.045 -55.527)" fill="#262626"/>
      <path id="Path_3858" data-name="Path 3858" d="M42.63,152.687c-7.973,0-14.458-6.823-14.458-15.209S34.658,122.27,42.63,122.27s14.457,6.823,14.457,15.208S50.6,152.687,42.63,152.687m0-27.029c-6.166,0-11.183,5.3-11.183,11.82S36.464,149.3,42.63,149.3s11.182-5.3,11.182-11.821-5.016-11.82-11.182-11.82" transform="translate(-13.094 -54.58)" fill="#262626"/>
      <path id="Path_3859" data-name="Path 3859" d="M44.179,224.411a1.667,1.667,0,0,1-1.638-1.694V200.533a1.667,1.667,0,0,1,1.638-1.694H71.449a3.918,3.918,0,0,0,2.835-1.222,4.2,4.2,0,0,0,1.184-2.935,4.1,4.1,0,0,0-4.019-4.157H14.235c-6.248,0-10.96,4.968-10.96,11.555v20.637a1.667,1.667,0,0,1-1.638,1.694A1.667,1.667,0,0,1,0,222.717V202.081c0-8.379,6.252-14.944,14.235-14.944H71.449a7.431,7.431,0,0,1,7.294,7.545,7.626,7.626,0,0,1-2.142,5.33,7.118,7.118,0,0,1-5.152,2.214H45.817v20.491a1.667,1.667,0,0,1-1.638,1.694" transform="translate(0 -83.536)" fill="#262626"/>
      <path id="Path_3860" data-name="Path 3860" d="M22.809,237.051H22.8a1.667,1.667,0,0,1-1.638-1.694V217.146a1.667,1.667,0,0,1,1.637-1.694h0a1.667,1.667,0,0,1,1.638,1.693l.012,18.211a1.667,1.667,0,0,1-1.637,1.7Z" transform="translate(-9.834 -96.176)" fill="#262626"/>
    </g>
  </g>
</svg>
