<svg xmlns="http://www.w3.org/2000/svg" xmlns:xlink="http://www.w3.org/1999/xlink" width="26.503" height="29.485" viewBox="0 0 26.503 29.485">
  <defs>
    <clipPath id="clip-path">
      <rect id="Rectangle_29" data-name="Rectangle 29" width="26.503" height="29.485" fill="#fff"/>
    </clipPath>
  </defs>
  <g id="Group_49" data-name="Group 49" transform="translate(0 0)">
    <g id="Group_48" data-name="Group 48" transform="translate(0 0)" clip-path="url(#clip-path)">
      <path id="Path_52" data-name="Path 52" d="M26.258,29.272c-.522.522-1.511-.03-1.962-.429-1.843-2.127-3.789-4.2-5.57-6.383a8.055,8.055,0,0,1-.742-1.031,4.845,4.845,0,0,0-.677.386,11.646,11.646,0,1,1,3.06-2.473c-.085.1-.427.375-.4.473l4.922,5.67a7.621,7.621,0,0,1,1.4,1.993c.193.489.38,1.383-.031,1.794M11.321,2.031c-7.56.2-12.268,8.667-7.807,15.053a9.953,9.953,0,0,0,16.537-.494c3.932-6.429-.862-14.428-8.222-14.572Z" transform="translate(0 0)" fill="#fff"/>
    </g>
  </g>
</svg>
