<svg xmlns="http://www.w3.org/2000/svg" width="33.24" height="26.339" viewBox="0 0 33.24 26.339">
  <path id="_63ece9d6efede91a559f2352_twitter-1" data-name="63ece9d6efede91a559f2352_twitter-1" d="M1,27.007c23.6,9.158,30.276-7.594,30.075-15.865,1.917-.523,3.166-1.827,3.166-3.166-1.583.832-2.41.6-3.2,0,1.7-1.161,1.619-2.816,1.619-3.957A10.133,10.133,0,0,1,28.7,5.6C27.573,3.84,24.743,2.437,20.786,4.02a6.577,6.577,0,0,0-3.957,7.914c-5.065,0-11.08-5.276-13.454-7.914-2.846,4.06.754,8.088,2.374,9.5a3.3,3.3,0,0,1-3.166-.791c0,4.519,3.957,6.331,5.54,7.123H4.957c0,3.166,3.693,4.485,5.54,4.749C9.231,25.863,4.129,27.007,1,27.007Z" transform="translate(-1 -3.33)" fill="#821832"/>
</svg>
